<svg width="10" height="12" viewBox="0 0 10 12" fill="none" xmlns="http://www.w3.org/2000/svg">
<path fill-rule="evenodd" clip-rule="evenodd" d="M4.95602 0.584457L5.07508 0.58667L5.16911 0.600522L5.26439 0.626172L5.32502 0.649129L5.41017 0.691008L5.4844 0.738351L5.56595 0.804999L5.62813 0.869051L8.96147 4.69255C9.26391 5.03946 9.22785 5.56587 8.88094 5.86831C8.56071 6.14748 8.08755 6.13824 7.77877 5.86231L7.70518 5.78778L5.83332 3.64083V10.5833C5.83332 11.0436 5.46023 11.4167 4.99999 11.4167C4.57263 11.4167 4.2204 11.095 4.17226 10.6805L4.16666 10.5833V3.64L2.2948 5.78778C1.99236 6.13469 1.46596 6.17075 1.11904 5.86831C0.798816 5.58913 0.743463 5.11912 0.974719 4.77561L1.03852 4.69255L4.38884 0.850052L4.46242 0.779882L4.54356 0.719326L4.65062 0.659879L4.75343 0.620412L4.85167 0.596509L4.90281 0.588939C4.92209 0.586746 4.93904 0.585343 4.95602 0.584457Z" fill="#0C0507"/>
</svg>
